<?xml version="1.0" standalone="no"?>
<!DOCTYPE svg PUBLIC "-//W3C//DTD SVG 20010904//EN"
 "http://www.w3.org/TR/2001/REC-SVG-20010904/DTD/svg10.dtd">
<svg version="1.0" xmlns="http://www.w3.org/2000/svg"
 width="566.000000pt" height="659.000000pt" viewBox="0 0 566.000000 659.000000"
 preserveAspectRatio="xMidYMid meet">
<metadata>
Created by potrace 1.16, written by Peter Selinger 2001-2019
</metadata>
<g transform="translate(0.000000,659.000000) scale(0.100000,-0.100000)"
fill="#000000" stroke="none">
<path d="M4354 6127 l-49 -32 0 -210 c0 -181 2 -213 17 -235 9 -14 56 -50 103
-80 155 -99 157 -100 195 -189 22 -52 40 -81 50 -81 18 0 59 26 78 49 13 17 7
20 262 -118 51 -27 76 -25 131 12 l34 23 3 209 c3 262 10 248 -179 356 -74 42
-233 134 -353 203 -121 69 -225 126 -232 126 -6 0 -34 -15 -60 -33z"/>
<path d="M4645 4980 c-78 -12 -105 -42 -85 -95 l10 -28 79 7 c73 7 80 6 94
-14 11 -16 14 -37 10 -81 -5 -49 -3 -59 10 -59 24 0 64 55 72 99 19 116 -63
189 -190 171z"/>
<path d="M2325 4736 c-13 -13 -26 -39 -30 -57 -3 -19 -4 -596 -3 -1284 l3
-1250 27 -55 c15 -30 42 -69 60 -86 29 -27 272 -171 763 -452 177 -101 208
-110 250 -67 18 17 25 35 25 62 0 21 0 592 1 1268 l2 1230 -22 57 c-38 98 -68
121 -431 329 -542 311 -574 329 -598 329 -13 0 -34 -11 -47 -24z m271 -179
c170 -97 180 -104 192 -142 18 -54 58 -95 95 -95 20 0 30 6 34 20 3 11 8 20
11 20 8 0 260 -142 325 -183 29 -18 58 -47 75 -76 l27 -46 3 -1212 c2 -1205 2
-1213 -18 -1233 -11 -11 -28 -20 -38 -20 -10 0 -78 35 -152 78 -144 84 -391
226 -583 336 -140 81 -171 106 -197 157 -20 37 -20 67 -20 1250 0 1114 1 1214
17 1231 9 10 24 18 33 18 9 0 97 -46 196 -103z"/>
<path d="M4467 3672 c-6 -270 1 -357 52 -627 l18 -95 -69 -64 c-72 -67 -81
-88 -47 -107 33 -17 74 -4 144 47 68 48 72 55 54 101 -9 25 -20 313 -18 508 1
115 23 330 34 328 6 -1 16 -60 22 -130 24 -240 44 -378 84 -568 22 -104 41
-195 42 -201 1 -5 -31 -38 -71 -73 -55 -47 -72 -68 -70 -84 2 -18 11 -22 48
-25 41 -3 52 2 110 45 57 43 65 52 62 78 -2 17 -7 120 -12 230 -5 110 -13 220
-19 245 -11 50 -13 216 -2 360 6 88 4 98 -18 140 l-24 45 -76 0 c-86 0 -143
21 -202 73 l-36 31 -6 -257z"/>
<path d="M772 2864 c-76 -39 -103 -138 -63 -230 30 -66 48 -84 87 -84 60 0 64
5 64 86 0 83 10 96 82 108 55 10 67 65 23 106 -34 32 -142 40 -193 14z"/>
<path d="M1406 2172 c-44 -26 -79 -51 -79 -57 0 -5 12 -17 26 -25 20 -11 31
-12 49 -3 13 6 35 14 50 17 15 4 35 19 45 36 19 33 33 39 33 15 0 -8 3 -15 8
-15 10 1 42 26 42 34 0 10 -63 46 -80 46 -8 -1 -51 -22 -94 -48z"/>
<path d="M631 1763 c0 -32 7 -105 15 -163 8 -58 17 -159 20 -225 3 -65 7 -121
9 -123 2 -2 -3 -22 -11 -44 -7 -22 -11 -44 -8 -50 3 -5 1 -15 -5 -22 -7 -9
-11 -80 -12 -202 0 -106 -5 -205 -11 -226 -23 -79 13 -119 84 -92 140 52 143
53 146 39 2 -8 11 -16 20 -18 13 -4 12 -5 -4 -6 -25 -1 -34 -19 -34 -65 0 -38
15 -56 48 -56 30 0 201 67 225 88 24 21 19 66 -8 71 -24 4 -152 -18 -180 -32
-19 -9 -19 -9 1 10 16 16 23 44 33 124 8 57 15 113 18 124 2 11 8 56 13 100 4
44 11 87 14 95 3 8 10 110 16 225 5 116 13 256 16 313 4 70 2 102 -5 102 -6 0
-11 -4 -11 -8 0 -25 -124 -41 -175 -22 -14 5 -37 12 -52 14 -14 3 -30 11 -34
17 -4 6 -12 8 -19 4 -8 -5 -11 -4 -7 2 4 5 -6 16 -21 24 -41 21 -72 46 -65 53
3 3 1 6 -5 6 -7 0 -11 -21 -11 -57z m223 -309 c4 -9 4 -26 1 -38 -4 -12 -3
-16 2 -9 4 6 7 -32 6 -85 -1 -66 2 -99 10 -104 7 -4 8 -8 2 -8 -6 0 -11 -77
-13 -206 -1 -113 2 -203 6 -200 5 3 9 -1 9 -9 0 -8 -5 -11 -10 -8 -6 4 -8 0
-5 -8 4 -10 -3 -14 -26 -16 -17 -1 -50 -8 -72 -16 l-42 -14 9 31 c6 26 36 248
44 336 2 14 10 63 18 110 9 47 19 114 22 150 6 63 11 102 14 108 4 8 20 -1 25
-14z"/>
</g>
</svg>
